<?xml version="1.0" encoding="utf-8"?>
<!-- Generator: Adobe Illustrator 17.0.0, SVG Export Plug-In . SVG Version: 6.00 Build 0)  -->
<!DOCTYPE svg PUBLIC "-//W3C//DTD SVG 1.1//EN" "http://www.w3.org/Graphics/SVG/1.1/DTD/svg11.dtd">
<svg version="1.1" id="Calque_1" xmlns="http://www.w3.org/2000/svg" xmlns:xlink="http://www.w3.org/1999/xlink" x="0px" y="0px"
	 width="367.809px" height="199.251px" viewBox="0 0 367.809 199.251" enable-background="new 0 0 367.809 199.251"
	 xml:space="preserve">
<g>
	<g>
		<path fill="#130F0E" d="M146.144,71.334c0-8.24,4.685-13.571,11.955-13.571c5.332,0,9.209,2.747,11.794,8.401
			c6.624-6.624,10.825-8.886,16.318-8.886c6.785,0,12.117,5.493,12.117,12.278c0,5.655-2.423,7.917-12.117,10.825
			c-12.925,4.201-16.318,7.432-16.318,15.832v29.889c0,5.655-0.162,7.109-1.616,9.855c-1.777,3.555-5.978,5.978-10.178,5.978
			c-4.362,0-8.562-2.423-10.34-5.978c-1.454-2.746-1.615-4.039-1.615-9.855V71.334z"/>
		<path fill="#130F0E" d="M281.371,108.816c0,8.4-1.776,14.54-5.815,19.549c-6.786,8.724-18.58,14.055-31.02,14.055
			c-12.44,0-24.234-5.331-31.02-14.055c-4.04-5.009-5.816-11.148-5.816-19.549v-35.22c0-5.655,0.161-7.108,1.615-9.855
			c1.777-3.555,5.978-5.978,10.34-5.978c4.201,0,8.401,2.423,10.179,5.978c1.454,2.747,1.615,4.039,1.615,9.855v32.312
			c0,5.008,0.97,7.432,3.716,10.178c2.585,2.424,5.816,3.716,9.371,3.716c3.554,0,6.785-1.292,9.37-3.716
			c2.746-2.746,3.716-5.17,3.716-10.178V73.596c0-5.655,0.161-7.108,1.615-9.855c1.777-3.555,5.979-5.978,10.34-5.978
			c4.201,0,8.401,2.423,10.179,5.978c1.454,2.747,1.615,4.039,1.615,9.855V108.816z"/>
		<path fill="#130F0E" d="M293.652,71.657c0-8.401,4.847-13.895,12.117-13.895c5.331,0,8.724,2.423,10.985,8.24
			c6.947-6.462,12.602-8.724,21.811-8.724c8.24,0,15.188,2.423,20.68,7.108c6.301,5.655,8.563,11.471,8.563,22.78v38.935
			c0,5.655-0.162,7.109-1.616,9.855c-1.777,3.555-5.978,5.978-10.178,5.978c-4.362,0-8.562-2.423-10.34-5.978
			c-1.454-2.746-1.616-4.039-1.616-9.855V92.821c0-9.208-5.17-15.024-13.248-15.024c-7.593,0-13.409,6.139-13.409,14.056v34.25
			c0,5.655-0.161,7.109-1.615,9.855c-1.777,3.555-5.978,5.978-10.179,5.978c-4.362,0-8.562-2.423-10.34-5.978
			c-1.454-2.746-1.615-4.039-1.615-9.855V71.657z"/>
	</g>
	<path fill="#F39C12" d="M92.927,0.579c1.809,2.064,1.964,3.727,0.622,6.435c-8.209,16.558-16.903,32.871-25.351,49.309
		c-0.392,0.764-0.739,1.551-1.278,2.689c1.162,0,1.946,0,2.729,0c14.494,0,28.988,0.01,43.483-0.011
		c1.951-0.003,3.712,0.296,4.757,2.17c0.964,1.729,0.444,3.702-1.411,5.304C105.455,75.995,94.42,85.5,83.396,95.019
		c-16.788,14.496-33.569,29.001-50.356,43.498c-3.503,3.025-5.622,3.751-7.455,2.816c-2.081-1.583-2.606-2.969-0.769-6.542
		c8.446-16.432,16.897-32.861,25.342-49.294c0.393-0.765,0.743-1.553,1.294-2.71c-1.157,0-1.936,0-2.714,0
		c-14.49,0-28.98-0.01-43.469,0.011c-1.945,0.003-3.713-0.274-4.776-2.137c-0.983-1.721-0.478-3.723,1.359-5.31
		c10.069-8.696,20.152-17.375,30.223-26.069C50.762,33.151,69.445,17.015,88.122,0.872C88.441,0.596,90.749-0.755,92.927,0.579z"/>
</g>
</svg>
